<?xml version="1.0" encoding="UTF-8"?>
<!DOCTYPE svg PUBLIC "-//W3C//DTD SVG 1.1//EN" "http://www.w3.org/Graphics/SVG/1.1/DTD/svg11.dtd">
<svg xmlns="http://www.w3.org/2000/svg" version="1.1" width="1150px" height="355px" style="shape-rendering:geometricPrecision; text-rendering:geometricPrecision; image-rendering:optimizeQuality; fill-rule:evenodd; clip-rule:evenodd" xmlns:xlink="http://www.w3.org/1999/xlink">
<g><path style="opacity:1" fill="#fefefe" d="M -0.5,-0.5 C 382.833,-0.5 766.167,-0.5 1149.5,-0.5C 1149.5,117.833 1149.5,236.167 1149.5,354.5C 766.167,354.5 382.833,354.5 -0.5,354.5C -0.5,236.167 -0.5,117.833 -0.5,-0.5 Z"/></g>
<g><path style="opacity:1" fill="#1e1e1e" d="M 186.5,61.5 C 185.849,77.8683 186.515,93.8683 188.5,109.5C 189.164,111.81 189.497,114.31 189.5,117C 189.618,120.027 189.118,122.861 188,125.5C 187.667,176.5 187.333,227.5 187,278.5C 185.394,285.769 181.227,290.935 174.5,294C 138.167,294.667 101.833,294.667 65.5,294C 59.18,291.014 55.0133,286.181 53,279.5C 52.5772,218.094 52.0772,156.761 51.5,95.5C 52.2218,83.8455 52.7218,72.1788 53,60.5C 55.0133,53.8193 59.18,48.986 65.5,46C 101.5,45.3333 137.5,45.3333 173.5,46C 180.908,48.5759 185.242,53.7425 186.5,61.5 Z"/></g>
<g><path style="opacity:1" fill="#d6d6d6" d="M 118.5,50.5 C 119.5,50.5 120.5,50.5 121.5,50.5C 121.5,51.8333 121.5,53.1667 121.5,54.5C 118.046,54.7332 117.046,53.3999 118.5,50.5 Z"/></g>
<g><path style="opacity:1" fill="#eeeeee" d="M 91.5,58.5 C 94.5,58.1667 95.8333,59.5 95.5,62.5C 94.1667,62.5 92.8333,62.5 91.5,62.5C 91.5,61.1667 91.5,59.8333 91.5,58.5 Z"/></g>
<g><path style="opacity:1" fill="#dcdcdc" d="M 106.5,59.5 C 115.833,59.5 125.167,59.5 134.5,59.5C 134.5,60.5 134.5,61.5 134.5,62.5C 125.167,62.5 115.833,62.5 106.5,62.5C 106.5,61.5 106.5,60.5 106.5,59.5 Z"/></g>
<g><path style="opacity:1" fill="#828282" d="M 186.5,61.5 C 187.181,77.4019 187.847,93.4019 188.5,109.5C 186.515,93.8683 185.849,77.8683 186.5,61.5 Z"/></g>
<g><path style="opacity:1" fill="#fdfdfd" d="M 55.5,73.5 C 98.5,73.5 141.5,73.5 184.5,73.5C 184.5,137.833 184.5,202.167 184.5,266.5C 141.5,266.5 98.5,266.5 55.5,266.5C 55.5,202.167 55.5,137.833 55.5,73.5 Z"/></g>
<g><path style="opacity:1" fill="#7c7c7c" d="M 530.5,130.5 C 534.182,130.335 537.848,130.501 541.5,131C 547.365,135.204 548.032,140.204 543.5,146C 538.227,148.125 533.06,147.958 528,145.5C 524.263,139.69 525.096,134.69 530.5,130.5 Z"/></g>
<g><path style="opacity:1" fill="#7b7b7b" d="M 699.5,132.5 C 702.518,132.335 705.518,132.502 708.5,133C 710.667,133.833 712.167,135.333 713,137.5C 713.333,157.833 713.667,178.167 714,198.5C 714.273,200.329 715.107,201.829 716.5,203C 720.089,203.207 723.589,203.707 727,204.5C 727.667,207.833 727.667,211.167 727,214.5C 725.786,216.049 724.286,217.215 722.5,218C 708.935,220.746 700.102,215.579 696,202.5C 695.333,180.5 695.333,158.5 696,136.5C 697.376,135.295 698.542,133.962 699.5,132.5 Z"/></g>
<g><path style="opacity:1" fill="#7a7a7a" d="M 924.5,140.5 C 924.5,149.5 924.5,158.5 924.5,167.5C 937.677,167.829 950.677,167.495 963.5,166.5C 963.334,157.161 963.5,147.827 964,138.5C 964.685,135.943 966.185,134.109 968.5,133C 974.246,131.277 978.746,132.777 982,137.5C 982.667,161.833 982.667,186.167 982,210.5C 979.478,217.676 974.645,219.843 967.5,217C 965.959,215.421 964.792,213.587 964,211.5C 963.5,201.839 963.334,192.172 963.5,182.5C 950.5,182.5 937.5,182.5 924.5,182.5C 924.666,192.839 924.5,203.172 924,213.5C 920.34,217.367 915.84,218.534 910.5,217C 908.951,215.786 907.785,214.286 907,212.5C 906.833,200 906.667,187.5 906.5,175C 906.351,161.742 906.851,148.576 908,135.5C 908.833,134.667 909.667,133.833 910.5,133C 915.84,131.466 920.34,132.633 924,136.5C 924.49,137.793 924.657,139.127 924.5,140.5 Z"/></g>
<g><path style="opacity:1" fill="#797979" d="M 358.5,186.5 C 350.5,186.5 342.5,186.5 334.5,186.5C 334.5,194.833 334.5,203.167 334.5,211.5C 331.627,217.738 326.96,219.571 320.5,217C 318.513,215.681 317.346,213.848 317,211.5C 316.019,186.413 316.353,161.413 318,136.5C 318.903,135.299 320.069,134.465 321.5,134C 335.5,133.333 349.5,133.333 363.5,134C 380.454,139.393 386.954,150.893 383,168.5C 378.929,180.07 370.763,186.07 358.5,186.5 Z"/></g>
<g><path style="opacity:1" fill="#797979" d="M 1003.5,133.5 C 1018.89,133.065 1034.22,133.565 1049.5,135C 1063.66,140.753 1069.16,151.253 1066,166.5C 1063.6,176.567 1057.43,183.067 1047.5,186C 1037.51,186.5 1027.51,186.666 1017.5,186.5C 1017.95,195.94 1017.45,205.274 1016,214.5C 1009.86,220.255 1004.53,219.588 1000,212.5C 999.333,187.5 999.333,162.5 1000,137.5C 1001.38,136.295 1002.54,134.962 1003.5,133.5 Z"/></g>
<g><path style="opacity:1" fill="#fbfbfb" d="M 334.5,147.5 C 342.917,147.094 351.251,147.594 359.5,149C 366.94,153.623 368.44,159.789 364,167.5C 362.269,169.617 360.102,171.117 357.5,172C 349.841,172.5 342.174,172.666 334.5,172.5C 334.5,164.167 334.5,155.833 334.5,147.5 Z"/></g>
<g><path style="opacity:1" fill="#fdfdfd" d="M 1017.5,147.5 C 1025.92,147.094 1034.25,147.594 1042.5,149C 1047.11,151.208 1049.11,154.875 1048.5,160C 1049.04,166.125 1046.38,170.125 1040.5,172C 1032.84,172.5 1025.17,172.666 1017.5,172.5C 1017.5,164.167 1017.5,155.833 1017.5,147.5 Z"/></g>
<g><path style="opacity:1" fill="#7b7b7b" d="M 410.5,157.5 C 431.047,155.25 442.713,164.25 445.5,184.5C 445.712,187.011 445.045,189.178 443.5,191C 430.487,191.167 417.487,191.667 404.5,192.5C 408.948,204.119 417.281,207.952 429.5,204C 434.631,200.67 439.464,200.837 444,204.5C 444.734,210.788 441.901,214.622 435.5,216C 421.947,220.474 409.281,218.807 397.5,211C 386.066,198.3 384.566,184.466 393,169.5C 397.84,163.847 403.673,159.847 410.5,157.5 Z"/></g>
<g><path style="opacity:1" fill="#7c7c7c" d="M 460.5,157.5 C 467.874,156.424 472.374,159.424 474,166.5C 481.403,157.701 490.569,155.201 501.5,159C 508.404,162.294 512.238,167.794 513,175.5C 513.667,187.5 513.667,199.5 513,211.5C 509.275,218.914 503.942,220.248 497,215.5C 495.725,202.903 495.058,190.236 495,177.5C 491.344,171.334 486.178,169.834 479.5,173C 476.894,174.938 475.061,177.438 474,180.5C 473.958,192.263 473.292,203.93 472,215.5C 465.521,220.199 460.187,219.199 456,212.5C 455.333,196.167 455.333,179.833 456,163.5C 457.332,161.34 458.832,159.34 460.5,157.5 Z"/></g>
<g><path style="opacity:1" fill="#7a7a7a" d="M 646.5,157.5 C 655.945,156.559 664.945,158.059 673.5,162C 677.666,165.165 680.166,169.332 681,174.5C 681.667,187.5 681.667,200.5 681,213.5C 677.108,219.259 672.441,219.926 667,215.5C 666.027,213.608 665.36,211.608 665,209.5C 661.061,215.638 655.394,218.638 648,218.5C 635.305,217.598 628.138,210.931 626.5,198.5C 628.241,188.603 634.241,183.436 644.5,183C 651.158,182.5 657.825,182.334 664.5,182.5C 665.998,176.652 663.998,172.819 658.5,171C 650.737,170.314 643.237,171.48 636,174.5C 630.977,173.458 629.31,170.458 631,165.5C 631.465,164.069 632.299,162.903 633.5,162C 637.927,160.43 642.26,158.93 646.5,157.5 Z"/></g>
<g><path style="opacity:1" fill="#7a7a7a" d="M 755.5,157.5 C 764.479,156.663 772.813,158.496 780.5,163C 784.366,166.252 786.533,170.419 787,175.5C 787.667,187.833 787.667,200.167 787,212.5C 784.305,218.098 780.138,219.598 774.5,217C 772.457,215.189 770.957,213.022 770,210.5C 758.779,221.119 747.446,221.119 736,210.5C 728.267,194.801 733.101,185.634 750.5,183C 757.158,182.5 763.825,182.334 770.5,182.5C 771.757,176.844 769.757,173.011 764.5,171C 760.833,170.333 757.167,170.333 753.5,171C 749.725,172.37 745.891,173.536 742,174.5C 740.188,174.507 738.688,173.84 737.5,172.5C 735.717,168.461 736.384,164.961 739.5,162C 744.705,159.536 750.038,158.036 755.5,157.5 Z"/></g>
<g><path style="opacity:1" fill="#7a7a7a" d="M 806.5,157.5 C 813.469,156.726 817.636,159.726 819,166.5C 826.403,157.701 835.569,155.201 846.5,159C 853.125,162.079 856.958,167.245 858,174.5C 858.667,186.833 858.667,199.167 858,211.5C 857.654,213.848 856.487,215.681 854.5,217C 851.167,217.667 847.833,217.667 844.5,217C 843.667,216.167 842.833,215.333 842,214.5C 840.706,202.262 840.039,189.929 840,177.5C 838.7,173.013 835.7,171.013 831,171.5C 825.04,171.783 821.04,174.783 819,180.5C 818.958,192.263 818.292,203.93 817,215.5C 812.261,219.41 807.594,219.41 803,215.5C 801.361,197.591 801.027,179.591 802,161.5C 803.397,159.93 804.897,158.596 806.5,157.5 Z"/></g>
<g><path style="opacity:1" fill="#7b7b7b" d="M 532.5,157.5 C 538.204,156.436 542.371,158.436 545,163.5C 545.667,182.167 545.667,200.833 545,219.5C 543.843,231.324 537.343,237.824 525.5,239C 516.848,241.288 513.015,238.121 514,229.5C 514.833,228.667 515.667,227.833 516.5,227C 521.413,226.967 524.913,224.8 527,220.5C 527.333,201.167 527.667,181.833 528,162.5C 529.025,160.313 530.525,158.646 532.5,157.5 Z"/></g>
<g><path style="opacity:1" fill="#7b7b7b" d="M 564.5,157.5 C 569.635,156.426 573.468,158.093 576,162.5C 576.333,174.5 576.667,186.5 577,198.5C 578.024,202.68 580.69,204.68 585,204.5C 591.405,204.098 595.405,200.765 597,194.5C 597.043,183.07 597.71,171.737 599,160.5C 604.281,156.301 609.281,156.634 614,161.5C 615.623,178.1 615.956,194.767 615,211.5C 613.18,217.161 609.347,219.328 603.5,218C 600.272,216.437 598.105,213.937 597,210.5C 588.359,219.317 578.526,220.817 567.5,215C 562.631,211.426 559.797,206.592 559,200.5C 558.333,188.167 558.333,175.833 559,163.5C 560.36,160.977 562.193,158.977 564.5,157.5 Z"/></g>
<g><path style="opacity:1" fill="#b4b4b4" d="M 924.5,140.5 C 925.493,148.984 925.826,157.651 925.5,166.5C 938.167,166.5 950.833,166.5 963.5,166.5C 950.677,167.495 937.677,167.829 924.5,167.5C 924.5,158.5 924.5,149.5 924.5,140.5 Z"/></g>
<g><path style="opacity:1" fill="#fafafa" d="M 413.5,169.5 C 424.173,167.522 429.84,171.856 430.5,182.5C 421.808,182.831 413.141,182.498 404.5,181.5C 406.053,176.298 409.053,172.298 413.5,169.5 Z"/></g>
<g><path style="opacity:1" fill="#cdcdcd" d="M 358.5,186.5 C 351.018,187.492 343.352,187.825 335.5,187.5C 335.826,195.684 335.492,203.684 334.5,211.5C 334.5,203.167 334.5,194.833 334.5,186.5C 342.5,186.5 350.5,186.5 358.5,186.5 Z"/></g>
<g><path style="opacity:1" fill="#f9f9f9" d="M 650.5,191.5 C 655.167,191.5 659.833,191.5 664.5,191.5C 664.3,204.247 658.3,208.58 646.5,204.5C 641.803,198.285 643.136,193.952 650.5,191.5 Z"/></g>
<g><path style="opacity:1" fill="#f9f9f9" d="M 756.5,191.5 C 761.167,191.5 765.833,191.5 770.5,191.5C 770.06,203.545 764.06,208.045 752.5,205C 747.548,198.492 748.881,193.992 756.5,191.5 Z"/></g>
<g><path style="opacity:1" fill="#f9f9f9" d="M 115.5,271.5 C 125.543,270.378 130.043,274.712 129,284.5C 126.081,290.025 121.581,291.858 115.5,290C 108.879,283.788 108.879,277.621 115.5,271.5 Z"/></g>
</svg>
